<?xml version="1.0" encoding="utf-8"?>
<!-- Generator: Adobe Illustrator 23.0.0, SVG Export Plug-In . SVG Version: 6.00 Build 0)  -->
<svg version="1.1" id="Capa_1" xmlns="http://www.w3.org/2000/svg" xmlns:xlink="http://www.w3.org/1999/xlink" x="0px" y="0px"
	 viewBox="0 0 200 200" style="enable-background:new 0 0 200 200;" xml:space="preserve">
<style type="text/css">
	.st0{fill:#FFFFFF;}
</style>
<g>
	<path class="st0" d="M38.13,181C27.58,181,19,172.42,19,161.87V38.13C19,27.58,27.58,19,38.13,19h123.73
		C172.42,19,181,27.58,181,38.13v123.73c0,10.55-8.58,19.13-19.13,19.13H38.13z"/>
	<path d="M161.87,23c8.34,0,15.13,6.79,15.13,15.13v123.73c0,8.34-6.79,15.13-15.13,15.13H38.13C29.79,177,23,170.21,23,161.87
		V38.13C23,29.79,29.79,23,38.13,23H161.87 M161.87,15H38.13C25.36,15,15,25.36,15,38.13v123.73C15,174.64,25.36,185,38.13,185
		h123.73c12.78,0,23.13-10.36,23.13-23.13V38.13C185,25.36,174.64,15,161.87,15L161.87,15z"/>
</g>
<g>
	<circle cx="57.5" cy="57.5" r="17"/>
</g>
<g>
	<circle cx="57.5" cy="142.5" r="17"/>
</g>
<g>
	<circle cx="142.5" cy="142.5" r="17"/>
</g>
<g>
	<circle cx="142.5" cy="57.5" r="17"/>
</g>
</svg>
