<?xml version="1.0" encoding="utf-8"?>
<!-- Generator: Adobe Illustrator 24.0.1, SVG Export Plug-In . SVG Version: 6.00 Build 0)  -->
<svg version="1.1" id="Capa_1" xmlns="http://www.w3.org/2000/svg" xmlns:xlink="http://www.w3.org/1999/xlink" x="0px" y="0px"
	 viewBox="0 0 200 200" style="enable-background:new 0 0 200 200;" xml:space="preserve">
<style type="text/css">
	.st0{fill:#FFFFFF;}
	.st1{fill:#FF50A0;}
</style>
<g>
	<path class="st0" d="M38.1,181c-10.6,0-19.1-8.6-19.1-19.1V38.1C19,27.6,27.6,19,38.1,19h123.7c10.6,0,19.1,8.6,19.1,19.1v123.7
		c0,10.6-8.6,19.1-19.1,19.1L38.1,181L38.1,181z"/>
</g>
<g>
	<path class="st1" d="M38.1,181c-10.6,0-19.1-8.6-19.1-19.1V38.1C19,27.6,27.6,19,38.1,19h123.7c10.6,0,19.1,8.6,19.1,19.1v123.7
		c0,10.6-8.6,19.1-19.1,19.1L38.1,181L38.1,181z"/>
</g>
<g>
	<circle class="st0" cx="57.5" cy="57.5" r="17"/>
</g>
<g>
	<circle class="st0" cx="58" cy="100" r="17"/>
</g>
<g>
	<circle class="st0" cx="57.5" cy="142.5" r="17"/>
</g>
<g>
	<circle class="st0" cx="142.5" cy="142.5" r="17"/>
</g>
<g>
	<circle class="st0" cx="142.5" cy="57.5" r="17"/>
</g>
<g>
	<circle class="st0" cx="143" cy="100" r="17"/>
</g>
</svg>
