<svg id="Capa_1" data-name="Capa 1" xmlns="http://www.w3.org/2000/svg" viewBox="0 0 200 200"><defs><style>.cls-1{fill:#fff;}</style></defs><title>dado1</title><rect class="cls-1" x="19" y="19" width="162" height="162" rx="19.13"/><path d="M161.87,23A15.15,15.15,0,0,1,177,38.13V161.87A15.15,15.15,0,0,1,161.87,177H38.13A15.15,15.15,0,0,1,23,161.87V38.13A15.15,15.15,0,0,1,38.13,23H161.87m0-8H38.13A23.14,23.14,0,0,0,15,38.13V161.87A23.14,23.14,0,0,0,38.13,185H161.87A23.14,23.14,0,0,0,185,161.87V38.13A23.14,23.14,0,0,0,161.87,15Z"/><rect class="cls-1" x="19" y="19" width="162" height="162" rx="19.13"/><path d="M161.87,23A15.15,15.15,0,0,1,177,38.13V161.87A15.15,15.15,0,0,1,161.87,177H38.13A15.15,15.15,0,0,1,23,161.87V38.13A15.15,15.15,0,0,1,38.13,23H161.87m0-8H38.13A23.14,23.14,0,0,0,15,38.13V161.87A23.14,23.14,0,0,0,38.13,185H161.87A23.14,23.14,0,0,0,185,161.87V38.13A23.14,23.14,0,0,0,161.87,15Z"/><circle cx="100" cy="100" r="17"/></svg>